<svg fill="#000000" xmlns="http://www.w3.org/2000/svg"  viewBox="0 0 50 50" width="50px" height="50px"><path d="M 25 2 C 12.308594 2 2 12.308594 2 25 C 2 37.691406 12.308594 48 25 48 C 37.691406 48 48 37.691406 48 25 C 48 12.308594 37.691406 2 25 2 Z M 25 4 C 36.609375 4 46 13.390625 46 25 C 46 36.609375 36.609375 46 25 46 C 13.390625 46 4 36.609375 4 25 C 4 13.390625 13.390625 4 25 4 Z M 37.5 12 C 35.265625 12 26.421875 13.980469 23.1875 21.160156 C 22.785156 20.664063 21.164063 19 16.992188 19 C 13.621094 19 10 20.125 10 23.5 C 10 28 16.992188 28.25 16.992188 31 C 16.992188 34 13.746094 34 13.746094 34 C 13.746094 34 13.246094 30 10 30 C 9.5 30 8 30.25 8 32 C 8 32.746094 8.601563 33.503906 9.101563 33.851563 C 10.339844 34.71875 11.988281 35 15.25 35 C 20.839844 35 22.394531 32.550781 22.550781 30.40625 C 23.828125 33.890625 27.085938 35 29.734375 35 C 33.734375 35 37.667969 31.742188 38.976563 29.125 C 40.097656 26.875 41.722656 20 34.980469 20 C 31.480469 20 28.984375 21.625 28.984375 21.625 C 28.984375 21.5 29.5 18.625 32.5 15.875 C 34 14.5 35.488281 14.058594 36.375 13.945313 C 37.875 13.75 38.355469 13.480469 38.726563 13 C 39.410156 12.117188 38.75 12 37.5 12 Z M 17.992188 20 C 17.992188 20 17.609375 24 20.988281 24 C 21.410156 24 21.933594 23.835938 22.390625 23.527344 C 22.136719 24.59375 21.988281 25.746094 21.988281 27 C 21.988281 27.246094 22.007813 27.46875 22.019531 27.703125 C 22.011719 27.679688 22 27.644531 21.988281 27.625 C 20.488281 25.125 14.996094 25.125 14.996094 22.5 C 14.996094 19.875 17.992188 20 17.992188 20 Z M 31.09375 23 C 33.453125 22.976563 34.429688 25.457031 33.785156 28.75 C 33.390625 30.796875 31.988281 33.949219 29.808594 34 C 28.613281 34.023438 27.109375 31.921875 27.109375 29.117188 C 27.109375 25.335938 29.421875 23.015625 31.09375 23 Z"/></svg>