<svg fill="#000000" xmlns="http://www.w3.org/2000/svg"  viewBox="0 0 50 50" width="50px" height="50px"><path d="M 25 2 C 12.308594 2 2 12.308594 2 25 C 2 37.691406 12.308594 48 25 48 C 37.691406 48 48 37.691406 48 25 C 48 12.308594 37.691406 2 25 2 Z M 25 4 C 36.609375 4 46 13.390625 46 25 C 46 36.609375 36.609375 46 25 46 C 13.390625 46 4 36.609375 4 25 C 4 13.390625 13.390625 4 25 4 Z M 13.75 15.40625 L 12.71875 20.21875 L 16.53125 20.21875 C 19.507813 20.21875 20.34375 18.8125 20.34375 17.5 C 20.34375 16.574219 19.78125 15.40625 17.40625 15.40625 Z M 23.625 15.40625 L 22.5625 20.21875 L 26.375 20.21875 C 29.355469 20.21875 30.21875 18.8125 30.21875 17.5 C 30.21875 16.574219 29.65625 15.40625 27.28125 15.40625 Z M 32.59375 19.6875 L 31.5625 24.53125 L 35.375 24.53125 C 38.351563 24.53125 39.1875 23.125 39.1875 21.8125 C 39.1875 20.886719 38.621094 19.6875 36.25 19.6875 Z M 12.4375 22.65625 L 11.40625 27.46875 L 15.21875 27.46875 C 18.199219 27.46875 19.03125 26.058594 19.03125 24.75 C 19.03125 23.828125 18.46875 22.65625 16.09375 22.65625 Z M 22.28125 22.65625 L 21.25 27.46875 L 25.0625 27.46875 C 28.042969 27.46875 28.90625 26.058594 28.90625 24.75 C 28.90625 23.828125 28.308594 22.65625 25.9375 22.65625 Z M 31.1875 27.25 L 30.15625 32.0625 L 33.96875 32.0625 C 36.945313 32.0625 37.78125 30.652344 37.78125 29.34375 C 37.78125 28.417969 37.21875 27.25 34.84375 27.25 Z M 20.875 30.1875 L 19.84375 35 L 23.65625 35 C 26.632813 35 27.46875 33.589844 27.46875 32.28125 C 27.46875 31.351563 26.902344 30.1875 24.53125 30.1875 Z"/></svg>